<!--?xml version="1.0" encoding="utf-8"?-->
<!-- Generator: Adobe Illustrator 22.1.0, SVG Export Plug-In . SVG Version: 6.00 Build 0)  -->
<svg version="1.1" id="_x34_" xmlns="http://www.w3.org/2000/svg" xmlns:xlink="http://www.w3.org/1999/xlink" x="0px" y="0px" viewBox="0 0 552.911 800" style="width: 346px;" xml:space="preserve">
<style type="text/css">
	.st0{fill:#231815;}
</style>
<g>
	<path class="st0" d="M396.073,160.752c0.705,3.5,1.531,6.581,2.58,8.953c2.301-4.558,4.012-12.337,2.784-21.333
		c-0.386-2.661-1.04-5.259-2.016-7.638c0.539-2.451,0.975-5.166,1.227-8.14c0.224-3.102,0.23-6.481-0.215-10.046
		c-0.436-3.558-1.384-7.316-3.042-10.949c-1.646-3.636-3.921-6.874-6.482-9.514c-0.603-0.631-1.214-1.216-1.829-1.774
		c-0.015-0.183-0.029-0.361-0.046-0.548c3.554,3.067,6.632,5.922,9.163,8.063c-0.178-5.223-3.859-13.13-11.216-19.116
		c-0.635-2.117-1.48-4.346-2.718-6.582c-1.469-2.669-3.526-5.302-6.082-7.48c-2.238-1.894-4.484-3.248-6.736-4.415
		c-1.584-4.302-4.325-8.837-8.619-12.401c-0.627-0.545-1.286-1.039-1.97-1.49c-0.663-0.482-1.358-0.899-2.065-1.283l-1.034-0.573
		l-0.85-0.436c-0.574-0.311-1.143-0.618-1.705-0.921c-2.275-1.262-4.553-2.589-6.822-3.69c-0.817-0.399-1.632-0.757-2.442-1.092
		c-1.098-1.584-2.351-3.196-3.791-4.803c1.231,0.596,2.435,1.214,3.575,1.852c0.641,0.353,1.22,0.698,1.841,1.076
		c0.653,0.397,1.298,0.791,1.936,1.181c2.513,1.512,4.913,2.956,7.172,4.315c4.432,2.757,8.167,5.123,10.588,7.861
		c-0.188-1.838-1.061-3.92-2.343-5.951c-1.286-2.04-2.984-4.071-4.955-6.046c-1.97-1.979-4.231-3.891-6.651-5.754
		c-0.606-0.456-1.218-0.917-1.836-1.382c-0.653-0.478-1.377-0.981-2.086-1.424c-1.43-0.907-2.921-1.727-4.48-2.471
		c-3.119-1.475-6.3-2.641-9.719-3.177c-2.121-0.309-4.128-0.354-6.036-0.266c-0.854-0.446-1.716-0.886-2.621-1.282
		c-3.068-1.352-6.434-2.365-9.952-2.956c-0.348-0.812-0.769-1.623-1.3-2.419c-1.731-2.651-4.664-4.973-8.153-6.091
		c-3.486-1.168-7.334-1.134-10.898-0.322c-0.874,0.231-1.78,0.456-2.6,0.713c-0.077,0.026-0.151,0.056-0.229,0.082
		c-1.291-0.599-2.969-1.181-4.794-1.249c-1.845-0.072-3.255,0.193-4.532,0.345c-0.754,0.099-1.46,0.189-2.157,0.271
		c4.355-2.786,8.857-4.491,13.271-5.285c5.087-0.938,9.902-0.908,13.68-1.169c-3.269-1.861-7.957-3.806-14.002-4.105
		c-3.003-0.149-6.318,0.219-9.627,1.226c-1.983,0.602-3.941,1.45-5.837,2.476c-0.237-0.134-0.471-0.269-0.721-0.387
		c2.707-2.022,5.084-3.902,6.858-5.677c-2.944,0.044-6.661,0.665-10.772,2.088c-1.703,0.593-3.481,1.335-5.28,2.232
		c-3.394,0.278-6.924,1.244-10.306,2.851c-0.681,0.327-1.343,0.679-1.992,1.047c2.516-2.939,4.996-5.613,7.374-7.676
		c1.689-1.432,3.338-2.554,4.844-2.852c1.477-0.352,3.129,0.608,4.302,1.871c-0.133-0.828-0.327-1.792-0.964-2.7
		c-0.588-0.918-1.67-1.788-3.017-2.146c-1.338-0.368-2.763-0.287-4.101-0.008c-1.344,0.286-2.651,0.765-3.894,1.372
		c-4.31,2.144-8.201,5.47-11.749,9.472c-2.466-1.009-5.524-1.438-8.709-0.997c-3.775,0.521-7.499,2.32-10.712,4.727
		c-2.18,1.624-4.165,3.522-6.022,5.561c-2.755,0.764-5.527,1.969-8.125,3.847c-1.661,1.221-3.195,2.717-4.394,4.541
		c-1.116,1.784-1.871,3.493-2.419,5.225c-1.123,3.44-1.49,6.854-1.292,10.059c0.202,3.13,1.074,6.119,2.689,8.37
		c-0.535-0.159-1.097-0.277-1.682-0.359c-2.389-0.774-5.098-1.148-7.897-0.888c-2.331,0.202-4.592,0.888-6.488,1.847
		c-1.908,0.957-3.455,2.135-4.737,3.291c-2.541,2.34-4.253,4.569-5.641,6.547c1.689-0.014,3.673-0.461,5.747-1.118
		c-0.937,1.141-1.765,2.297-2.488,3.44c-0.488,0.103-0.976,0.207-1.466,0.316c-2.842,0.631-5.818,1.585-8.749,3.053
		c-1.495,0.745-2.929,1.613-4.266,2.589c-0.783-0.006-1.55-0.004-2.284,0.005c-3.773,0.076-7.006,0.261-9.723,0.505
		c1.676,1.547,4.192,2.977,7.178,4.105c-1.504,1.901-2.654,3.957-3.415,5.981c-0.998,2.584-1.279,5.111-1.371,7.322
		c0.033,1.119,0.074,2.163,0.199,3.133c0.122,0.732,0.259,1.406,0.404,2.049c-0.7,0.802-1.381,1.632-2.004,2.52
		c-1.893,2.661-3.324,5.561-4.259,8.433c-0.937,2.875-1.388,5.702-1.53,8.306c-0.175,3.318,0.108,6.276,0.612,8.816
		c-5.483,5.529-10.82,10.12-14.023,14.004c2.37-0.288,5.221-1.023,8.304-2.327c-0.818,1.96-1.529,4.017-2.124,6.137
		c-3.195,11.67-2.732,22.524-0.529,28.837c1.682-4.778,3.469-11.656,5.537-19.457c0.031,0.481,0.055,0.962,0.098,1.445
		c0.127,1.234,0.303,2.435,0.501,3.618c-1.639,3.536-2.941,7.648-3.499,12.134c-0.077,0.63-0.132,1.256-0.178,1.881
		c-0.974,1.22-1.811,2.4-2.459,3.519c0.745-0.243,1.533-0.521,2.356-0.832c-0.015,3.378,0.403,6.609,1.171,9.499
		c-1.718,3.087-3.16,5.881-4.154,8.285c1.776-0.801,3.758-2.017,5.806-3.602c0.027,0.061,0.053,0.126,0.08,0.187
		c-0.214,2.465-0.191,4.985,0.011,7.561c0.442,5.164,1.579,9.955,3.263,13.985c0.738,1.808,1.634,3.474,2.623,4.911
		c-0.504,1.165-0.889,2.292-1.11,3.326c0.786-0.466,1.628-0.988,2.5-1.541c0.048,0.053,0.097,0.101,0.145,0.153
		c-5.483,6.527-2.529,13.728-2.023,19.296c0.626,6.893,6.893,18.174,12.534,26.321c5.64,8.147,13.161,7.52,13.161,7.52
		s12.534,42.616,16.294,48.882c3.761,6.267,28.202,25.068,44.495,41.362c16.295,16.294,31.335,13.16,31.335,13.16
		s15.041,3.134,31.335-13.16c16.294-16.294,40.735-35.095,44.495-41.362c3.76-6.267,16.294-48.882,16.294-48.882
		s7.521,0.627,13.161-7.52c5.64-8.147,11.907-19.428,12.534-26.321c0.607-6.673,4.735-15.695-6.37-23.087
		c0.884-1.252,1.476-2.93,1.646-4.789c0.185-1.934-0.054-4.012-0.591-5.981c-0.163-0.601-0.35-1.164-0.548-1.71
		c1.148-1.414,2.246-3.171,3.155-5.241c1.406-3.165,2.356-7.02,2.672-11.101c0.347-5.034-0.167-9.581-1.111-13.329
		c0.14-0.555,0.266-1.124,0.375-1.706c0.485-2.524,0.65-5.273,0.533-8.122c0.269,0.523,0.528,1.038,0.769,1.539
		C395.777,161.481,395.929,161.124,396.073,160.752z M158.301,172.791c0.082-0.971,0.177-1.951,0.294-2.946
		c0.027-0.014,0.051-0.025,0.078-0.04c0.033,0.082,0.064,0.168,0.098,0.249c0.174,0.425,0.351,0.834,0.528,1.245
		C158.965,171.797,158.623,172.298,158.301,172.791z M373.352,80.09c0.033,0.028,0.07,0.054,0.102,0.082
		c1.144,0.964,2.171,2.01,3.125,3.103c-1.105-0.294-2.206-0.497-3.29-0.606C373.349,81.853,373.372,80.991,373.352,80.09z
		 M309.082,28.543c-1.703,0.011-3.38,0.1-5.027,0.288c-0.63-0.672-1.32-1.335-2.063-1.986
		C304.658,26.798,307.06,27.387,309.082,28.543z M162.433,207.141c-0.021,0.25-0.022,0.511-0.006,0.78
		c-0.002-0.017-0.003-0.031-0.005-0.048c-0.222-2.594-0.464-5.402-0.715-8.337c0.533,0.863,1.111,1.791,1.718,2.714
		c0.046,0.533,0.076,1.051,0.075,1.538c0.014,1.306-0.159,2.468-0.522,3.647C162.794,207.339,162.612,207.244,162.433,207.141z
		 M162.52,208.689c-0.006,0.013-0.012,0.026-0.017,0.039c-0.024-0.261-0.049-0.503-0.073-0.77
		C162.445,208.196,162.477,208.442,162.52,208.689z M168.421,210.242c-0.123-0.078-0.246-0.154-0.368-0.23
		c0.149-0.222,0.291-0.454,0.431-0.692c0.137,0.18,0.265,0.342,0.401,0.519L168.421,210.242z M266.479,22.322
		c2.197-1.743,4.406-3.387,6.536-4.951c0.289-0.069,0.59-0.16,0.872-0.22c0.102-0.021,0.198-0.036,0.299-0.056
		c-2.156,1.774-3.99,3.751-5.531,5.754c-1.024,0.403-2.021,0.87-2.94,1.5c-1.044,0.713-2.008,1.645-2.603,2.77
		c-0.608,1.12-0.739,2.365-0.532,3.337c0.014,0.073,0.039,0.136,0.056,0.206c-0.61-0.692-1.311-1.381-2.132-2.029
		c-0.147-0.122-0.318-0.235-0.472-0.354C261.886,26.279,264.028,24.29,266.479,22.322z M242.452,17.239
		c1.595-0.55,3.236-0.832,4.857-0.889c-0.595,0.793-1.171,1.611-1.748,2.548c-0.861,1.501-1.549,2.964-2.033,4.495
		c-0.08,0.24-0.128,0.476-0.199,0.716c-1.811-1.094-3.963-1.893-6.277-2.343c-0.524-0.102-1.068-0.161-1.607-0.229
		C237.712,19.591,240.038,18.072,242.452,17.239z M223.294,35.549l0.846-1.113c1.127-1.499,2.274-3.001,3.463-4.476
		c0.465-0.584,0.933-1.151,1.402-1.715c2.389-0.671,4.771-1.074,7.03-1.182c-1.149,0.544-2.257,1.128-3.296,1.766
		c-1.219,0.743-2.285,1.431-3.436,2.189c-2.183,1.449-4.227,2.972-6.04,4.574L223.294,35.549z M165.483,94.378
		c0.368-0.855,0.756-1.755,1.162-2.696c0.913-1.818,1.844-3.757,3.153-5.551c1.621-2.309,3.699-4.392,6.238-6.216
		c0.608,0.141,1.225,0.279,1.84,0.416c-0.033,0.028-0.071,0.048-0.103,0.076c-2.226,1.863-3.741,4.212-4.714,6.419
		c-0.353,0.801-0.632,1.583-0.881,2.357c-1.19,0.867-2.373,1.799-3.542,2.796c-1.176,1.005-2.394,2.157-3.567,3.419
		C165.205,95.055,165.348,94.736,165.483,94.378z M161.294,146.963c-0.046-1.041-0.092-2.083-0.096-3.087
		c0.06-2.64,0.149-5.176,0.54-7.505c0.076-0.635,0.137-1.089,0.251-1.554c0.112-0.473,0.254-0.945,0.451-1.412
		c0.351-0.885,0.833-1.761,1.34-2.632c-0.189,1.089-0.357,2.159-0.5,3.19c-0.586,4.513-0.776,8.476-0.731,11.756
		C162.134,146.104,161.716,146.518,161.294,146.963z M387.554,211.515l-4.118-3.58c0.298-0.241,0.587-0.491,0.856-0.757
		c0.989,1.824,2.206,3.278,3.514,4.496C387.72,211.621,387.642,211.567,387.554,211.515z"></path>
	<path class="st0" d="M518.278,440.29c-4.135-14.169-20.676-15.457-28.946-23.185c-8.27-7.728-121.772-44.952-121.772-44.952
		l-22.33-25.503l-1.24-39.414l-60.634-39.662v-9.026l-6.9,4.513l-6.899-4.513v9.026l-60.634,39.662l-1.241,39.414l-22.33,25.503
		c0,0-113.502,37.224-121.773,44.952c-8.27,7.728-24.811,9.016-28.946,23.185C30.498,454.459-1.205,728.808,1.552,749.417
		c2.757,20.609,0,48.583,0,48.583h267.237h15.332H551.36c0,0-2.757-27.974,0-48.583C554.117,728.808,522.413,454.459,518.278,440.29
		z"></path>
</g>
</svg>
