<!--?xml version="1.0" encoding="utf-8"?-->
<!-- Generator: Adobe Illustrator 22.1.0, SVG Export Plug-In . SVG Version: 6.00 Build 0)  -->
<svg version="1.1" id="_x33_" xmlns="http://www.w3.org/2000/svg" xmlns:xlink="http://www.w3.org/1999/xlink" x="0px" y="0px" viewBox="0 0 602.315 800" style="enable-background:new 0 0 602.315 800;" xml:space="preserve">
<style type="text/css">
	.st0{fill:#231815;}
</style>
<g>
	<path class="st0" d="M600.809,798c-0.834-16.68-18.093-295.64-27.36-321.588c-9.267-25.947-28.727-37.994-35.214-50.041
		c-6.487-12.047-14.827-14.827-30.581-18.533c-15.753-3.707-131.168-57.455-131.168-57.455l-9.267-25.947v-43.554
		c0,0,16.68-30.58,18.534-46.334c14.826,1.854,24.562-28.584,28.727-37.067c17.043-34.712-4.933-35.988-9.267-28.728
		c0,0,14.364-23.091,17.144-40.698c2.432-15.406,0.695-31.018-27.292-63.895c-7.706-9.052-14.591-18.76-21.456-28.465
		c-11.936-16.873-32.045-27.7-51.254-32.839C316.409,0.395,293.79,4,285.288,4.242C276.785,4,269.127,5.119,263.182,7.58
		c-24.219,6.479-48.96,22.284-57.856,47.565c-42.627,37.068-23.977,72.834-21.197,90.441c2.78,17.607,12.974,23.167,12.974,23.167
		c-4.983-4.57-23.737,7.888-9.267,28.728c5.39,7.762,13.9,38.921,28.727,37.067c1.854,15.754,18.534,46.334,18.534,46.334v43.554
		l-9.267,25.947c0,0-117.408,53.748-133.162,57.455c-15.754,3.707-24.094,6.487-30.581,18.533
		c-6.487,12.047-25.946,24.094-35.213,50.041C17.606,502.36,2.34,781.32,1.506,798H600.809z"></path>
</g>
</svg>
