<!--?xml version="1.0" encoding="utf-8"?-->
<!-- Generator: Adobe Illustrator 22.1.0, SVG Export Plug-In . SVG Version: 6.00 Build 0)  -->
<svg version="1.1" id="_x31__1_" xmlns="http://www.w3.org/2000/svg" xmlns:xlink="http://www.w3.org/1999/xlink" x="0px" y="0px" viewBox="0 0 617.58 800" style="enable-background:new 0 0 617.58 800;" xml:space="preserve">
<style type="text/css">
	.st0{fill:#231815;}
</style>
<g>
	<path class="st0" d="M579.746,460.992c0,0-3.373-25.4-18.16-41.423c-6.572-7.139-110.499-50.713-150.933-67.506
		c-9.828-4.071-15.906-6.572-15.906-6.572s-3.199-5.264-7.415-10.861c-4.187-5.568-9.364-11.486-13.362-12.882
		c-0.002-0.001-0.004-0.001-0.006-0.002l0.324-13.255c0,0,9.99-11.792,13.08-17.307c3.09-5.514,8.809-46.751,11.677-47.559
		c2.868-0.808,19.358-10.406,26.568-23.273s10.247-37.25,4.999-45.987c-5.247-8.738-11.384,1.349-11.384,1.349
		s20.993-65.043,12.601-87.135c-8.39-22.093-24.214-26.612-24.214-26.612S382.77,28.723,343.096,9.871
		c-39.674-18.851-72.652,0.345-83.672,13.976c-11.019,13.63-45.526,25.209-44.797,49.77c-27.918,11.89-25.69,84.631-10.222,96.681
		c-5.425-4.972-17.341,7.672-17.786,17.084c-0.444,9.412,5.39,25.724,15.166,38.448c9.775,12.725,16.978,14.963,16.978,14.963
		s10.03,31.674,13.351,41.264c3.321,9.59,8.785,14.482,8.785,14.482l-0.15,27.242c-0.002,0.001-0.002,0.002-0.004,0.003
		c-3.111,2.864-6.397,7.953-9.131,12.809c-3.591,6.397-6.222,12.373-6.222,12.373s-7.372,2.573-19.09,6.804
		c-39.81,14.379-129.677,47.791-150.309,63.799c-9.537,7.386-18.145,41.423-18.145,41.423S1.544,788.113,1.544,796.837
		c0,1.134,0.043-3.155,0.131,1.163h614.231c0.087-4.318,0.131-0.029,0.131-1.163C616.036,788.113,579.746,460.992,579.746,460.992z"></path>
</g>
</svg>
