<!--?xml version="1.0" encoding="utf-8"?-->
<!-- Generator: Adobe Illustrator 22.1.0, SVG Export Plug-In . SVG Version: 6.00 Build 0)  -->
<svg version="1.1" id="_x30_" xmlns="http://www.w3.org/2000/svg" xmlns:xlink="http://www.w3.org/1999/xlink" x="0px" y="0px" viewBox="0 0 635.295 800" style="enable-background:new 0 0 635.295 800;" xml:space="preserve">
<style type="text/css">
	.st0{fill:#231815;}
</style>
<g>
	<path class="st0" d="M192.838,253.248c-13.018-4.34-26.037-42.526-20.829-48.601c-14.754-13.018-19.961-57.28-15.622-83.316
		c4.339-26.036,45.13-87.655,71.166-83.316C272.683-6.247,318.68-4.511,340.377,15.45c37.319,11.282,65.958,37.319,65.958,74.637
		c30.376,26.036,32.111,75.505,23.433,92.862c2.603,13.018,0,21.697-7.811,38.186c-7.811,16.49-18.225,35.583-24.3,35.583
		c-1.736,5.207-7.811,43.394-15.622,54.676c0,20.829,1.736,37.319,1.736,37.319l32.111,29.508c0,0,119.146,22.671,153.561,52.394
		c31.287,28.158,29.723,48.494,29.723,48.494s25.029,81.111,31.287,189.05c6.257,107.94,1.564,129.84,1.564,129.84H1.588
		c0,0,0-220.337,20.336-301.683c12.515-51.623,31.287-67.266,35.98-67.266c4.693,0,151.741-61.009,151.741-61.009l10.95-26.594
		l-12.515-48.495L192.838,253.248z"></path>
</g>
</svg>
