<!--?xml version="1.0" encoding="utf-8"?-->
<!-- Generator: Adobe Illustrator 22.1.0, SVG Export Plug-In . SVG Version: 6.00 Build 0)  -->
<svg version="1.1" id="_x33_" xmlns="http://www.w3.org/2000/svg" xmlns:xlink="http://www.w3.org/1999/xlink" x="0px" y="0px" viewBox="0 0 611.625 800" style="enable-background:new 0 0 611.625 800;" xml:space="preserve">
<style type="text/css">
	.st0{fill:#231815;}
</style>
<g>
	<path class="st0" d="M556.418,521.658c-13.436-22.738-36.079-41.749-54.687-54.746c5.301-15.171,9.837-41.728,0.335-80.923
		c-18.388-75.85-14.069-80.392-20.098-114.559c-6.029-34.166-10.049-50.245-26.128-112.549
		C439.762,96.577,377.458-9.944,317.163,4.125c-48.236-8.039-106.52,6.029-136.667,54.265
		c-30.147,48.235-58.285,122.599-58.285,176.863c0,54.265-16.078,96.471-32.157,140.687c-14.538,39.977-1.143,79.953,20.87,100.62
		c-28.974,15.612-70.85,34.925-83.334,84.859C11.686,625.038-0.243,728.417,1.746,798h608.35
		C610.096,798,608.108,609.133,556.418,521.658z"></path>
</g>
</svg>
