<!--?xml version="1.0" encoding="utf-8"?-->
<!-- Generator: Adobe Illustrator 22.1.0, SVG Export Plug-In . SVG Version: 6.00 Build 0)  -->
<svg version="1.1" id="_x31__1_" xmlns="http://www.w3.org/2000/svg" xmlns:xlink="http://www.w3.org/1999/xlink" x="0px" y="0px" viewBox="0 0 549.07 800" style="width: 344px;" xml:space="preserve">
<style type="text/css">
	.st0{fill:#231815;}
</style>
<g>
	<path class="st0" d="M531.143,625.201c-13.796-88.295-24.32-155.573-68.98-176.59c-35.263-16.594-100.151-22.274-125.506-46.344
		c-0.181-20.636,1.953-40.472,5.5-38.039c4.946,3.394,7.917,30.056,7.917,30.056c49.973-4.323,73.865-48.927,79.011-60.506
		c5.147-11.578,27.397-57.868,13.026-102.985c-14.371-45.116-18.226-130.025-72.277-193.976
		c-54.051-63.951-144.485-20.237-144.485-20.237c-48.377,9.335-68.652,32.358-92.721,90.271
		c-24.07,57.913-37.162,165.889-34.303,200.869s25.548,80.208,83.617,92.632c1.896-1.382,9.872-12.081,20.348-26.729
		c3.349,10.329,5.494,21.993,6.83,31.498c-27.303,21.697-88.386,27.572-122.211,43.489c-44.66,21.017-55.184,88.295-68.98,176.59
		C4.132,713.496,1.373,798,1.373,798h273.163h273.162C547.698,798,544.939,713.496,531.143,625.201z"></path>
</g>
</svg>
