<!--?xml version="1.0" encoding="utf-8"?-->
<!-- Generator: Adobe Illustrator 22.1.0, SVG Export Plug-In . SVG Version: 6.00 Build 0)  -->
<svg version="1.1" id="_x30_" xmlns="http://www.w3.org/2000/svg" xmlns:xlink="http://www.w3.org/1999/xlink" x="0px" y="0px" viewBox="0 0 570.801 800" style="enable-background:new 0 0 570.801 800;" xml:space="preserve">
<style type="text/css">
	.st0{fill:#231815;}
</style>
<g>
	<path class="st0" d="M534.134,527.203c-32.597-46.83-134.731-67.19-139.078-81.444c-4.346-14.252,8.692-28.505,8.692-28.505
		s-28.965-24.201-45.635-34.613c-4.124-2.576-5.417-7.803-5.264-14c3.653-5.415,5.932-9.606,6.895-11.212
		c0.341,7.479,9.928,20.959,9.928,20.959s5.53-20.538,9.479-19.748c0,5.53,3.95,7.9,5.53,9.479c0-5.529,5.529-19.748,12.782-30.896
		c0,0,61.966-68.702,68.702-154.916c6.736-86.214-96.99-223.618-206.105-167.04C223.689,4.491,159.028,52.986,146.904,86.663
		c-25.594,25.595-66.007,121.239-28.289,183.205c6.257,13.557,23.605,27.297,29.088,43.746c1.58,4.74,14.219,27.648,14.219,37.127
		c6.319-1.579,7.109-16.588,7.109-16.588s13.429,18.958,11.849,25.278c4.74-0.79,5.764-9.291,6.437-14.125
		c0,0,2.694,12.124,13.471,21.554c3.219,2.816,7.983,8.032,13.983,13.998c-0.596,0.685-1.286,1.285-2.084,1.784
		c-16.67,10.413-45.635,34.613-45.635,34.613s13.039,14.253,8.692,28.505c-4.346,14.253-106.481,34.614-139.078,81.444
		C4.07,574.032-0.276,767.459,1.897,798h567.007C571.077,767.459,566.731,574.032,534.134,527.203z" style="fill: rgb(0, 0, 0);"></path>
</g>
</svg>
